# xmcd CD database file
#
# Track frame offsets:
#	150
#	11543
#	36196
#	60050
#	87928
#	102661
#	112093
#	134174
#	148463
#	165588
#	183791
#	201917
#
# Disc length: 2986 seconds
#
# Revision: 0
# Processed by: cddbd v1.5.2PL0 Copyright (c) Steve Scherf et al.
# Submitted via: CDex 1.51
#
DISCID=ab0ba80c
DTITLE=Aqarium - Лошадь белая
DYEAR=2008
DGENRE=Country
TTITLE0=Лошадь белая
TTITLE1=Дуй
TTITLE2=Ещё один раз
TTITLE3=Господу видней
TTITLE4=Анютины глазки
TTITLE5=Сокол
TTITLE6=Аригато
TTITLE7=Акуна Матата
TTITLE8=Слово Паисия Пчельника
TTITLE9=Девушка с веслом
TTITLE10=Что нам делать с пьяным матросом
TTITLE11=Неизъяснимо
EXTD=YEAR: 2008
EXTT0=
EXTT1=
EXTT2=
EXTT3=
EXTT4=
EXTT5=
EXTT6=
EXTT7=
EXTT8=
EXTT9=
EXTT10=
EXTT11=
PLAYORDER=
